<svg xmlns="http://www.w3.org/2000/svg" viewBox="0 0 585.32 655.36"><defs><style>.cls-1{fill:#010101;}.cls-2{fill:#fff;}</style></defs><g id="Layer_2" data-name="Layer 2"><g id="Layer_1-2" data-name="Layer 1"><path class="cls-1" d="M336.81,651.36l-.73-.3a1.54,1.54,0,0,0-1.24,0l-.72.3H321.28l-.64-.22a3.33,3.33,0,0,0-1.17-.21,3.4,3.4,0,0,0-1.15.2l-.65.23H307.44l-.31-.05a72.57,72.57,0,0,0-8.9-.66c-2.53-.08-5.15-.17-7.79-.47a318.51,318.51,0,0,1-66.86-14.91l-.42-.13c-1.29-.4-5.2-1.61-5.26-5.76-.08-4.36,3.93-5.65,5.24-6.08l.48-.16A293.85,293.85,0,0,0,257,608.58a321.46,321.46,0,0,0,68.23-47A323.23,323.23,0,0,0,357,528.48l.33-.39-.38-.3q-31.62-25.27-63.21-50.56l-61-48.81q-16.89-13.53-33.8-27l-.49-.38-.34.37c-14.87,16.27-31.47,27-50.72,32.67A113.71,113.71,0,0,1,114.61,439c-2.87,0-5.78-.12-8.64-.35-23.85-2-45-10.55-62.72-25.51C22.48,395.66,9.62,373.53,5,347.38a42.21,42.21,0,0,1-.46-4.95,27.79,27.79,0,0,0-.48-4.65L4,337.36V318l.09-.42a31.51,31.51,0,0,0,.51-4.86,40.15,40.15,0,0,1,.55-5.51,109.27,109.27,0,0,1,29.28-56.72C52,232.29,73.4,221.23,98,217.63a121,121,0,0,1,17.45-1.3c24.57,0,47.52,8.08,68.21,24a125.43,125.43,0,0,1,14.57,13.92l.18.19.25-.2c16.86-13.55,34-27.29,50.65-40.58l12.25-9.8q23.74-19,47.46-38l47.07-37.65c.21-.17.42-.34.62-.52l.63-.52c-4.32-5.3-8.51-10.09-12.78-14.6A322.46,322.46,0,0,0,274.5,56.41a305.09,305.09,0,0,0-48.26-23.14c-1.27-.48-2.57-1-3.88-1.57l-.27-.12c-3-1.28-4.42-3.25-4.23-5.85.29-3.69,3.57-4.86,4.8-5.31l.17-.06c6.19-2.21,13-4.28,21.38-6.52a310.9,310.9,0,0,1,49.45-9c2.29-.22,4.55-.29,6.74-.34A72.63,72.63,0,0,0,307.93,4l.27,0h4l.36.34h.3l.36-.34h28.81l.36.34h.3l.36-.34h3.33l.28,0a80,80,0,0,0,9.06.6c2.73.08,5.56.16,8.4.47a323.87,323.87,0,0,1,175,76.26,314.86,314.86,0,0,1,38.46,39.23l.43.51c.4.47.86,1,1.3,1.62,2.86,4,2.28,8.21-1.56,11.24-4.48,3.53-9,7.16-13.37,10.68L558.91,149q-36.3,29-72.57,58.05Q452.19,234.41,418,261.72c-.59.48-1.19.94-1.79,1.4l-.22.18a8.15,8.15,0,0,1-4.95,1.86,7.43,7.43,0,0,1-5.77-3,101.65,101.65,0,0,0-68.53-35.54c-3.36-.29-6.71-.44-10-.44a97.92,97.92,0,0,0-59.73,20c-23,17.2-36.48,40.13-40.05,68.18-3.91,30.64,4.59,57.94,25.27,81.15,16.49,18.51,37.24,29.51,61.68,32.69a112.36,112.36,0,0,0,14.61,1c24.57,0,47-8.7,66.74-25.86a97.06,97.06,0,0,0,7.25-7.24l2.19-2.33c1.57-1.64,3.51-3.69,6.37-3.69,2.29,0,4,1.25,6.07,2.87q12.31,9.81,24.59,19.66l4,3.19,85.08,68.07,44.7,35.76c3.27,2.61,5.43,4.34,5.73,7.3s-1.55,5.26-4.13,8.39a323.16,323.16,0,0,1-62.69,57.84,326.78,326.78,0,0,1-69.87,37.41,312.52,312.52,0,0,1-83.32,19.94c-2.4.24-4.79.3-7.09.36-2.64.06-5.12.13-7.58.43l-.24,0Z"/><path class="cls-2" d="M346.11,8c5.83.84,11.74.44,17.59,1.09A319.82,319.82,0,0,1,536.52,84.41a308.75,308.75,0,0,1,38,38.73c.53.64,1.09,1.25,1.57,1.92,1.55,2.17,1.49,4-.79,5.77-6.32,5-12.58,10-18.86,15.08Q485.94,202.22,415.53,258.6c-.65.52-1.3,1-2,1.53a4.24,4.24,0,0,1-2.5,1,3.61,3.61,0,0,1-2.72-1.55,105.53,105.53,0,0,0-71.23-36.94c-3.49-.31-6.93-.46-10.33-.47-22.71,0-43.49,6.92-62.12,20.84C241,260.74,226.78,284.53,223,313.91c-4.07,31.93,4.77,60.21,26.25,84.32,17.15,19.25,38.68,30.68,64.15,34a116.93,116.93,0,0,0,15.13,1c25.78,0,48.94-9.06,69.37-26.84,3.51-3.05,6.53-6.49,9.71-9.83,1.56-1.64,2.47-2.45,3.47-2.45s1.92.68,3.58,2Q429,407.51,443.27,419q64.88,51.93,129.78,103.83c5.45,4.36,5.55,4.52,1,10a317.31,317.31,0,0,1-61.91,57.12,320.94,320.94,0,0,1-69,37,307.38,307.38,0,0,1-82.26,19.69c-4.9.48-9.86.19-14.77.8H344a1.73,1.73,0,0,0-1.06-.4,1.76,1.76,0,0,0-1.07.4h-4.26a5.38,5.38,0,0,0-4.26,0H322a7.24,7.24,0,0,0-5,0h-3.55a1.73,1.73,0,0,0-1.06-.4,1.76,1.76,0,0,0-1.07.4h-3.55c-5.59-.89-11.26-.52-16.87-1.15a313.63,313.63,0,0,1-66-14.73c-1.21-.41-2.94-.72-3-2.16,0-1.67,1.84-2,3.11-2.43a300.16,300.16,0,0,0,33.81-14.76,323.51,323.51,0,0,0,69.07-47.6A326,326,0,0,0,360.05,531c2.89-3.48,2.85-3.6-.64-6.38q-53.79-43-107.56-86-25.23-20.17-50.46-40.35c-1.61-1.28-2.47-2-3.24-2s-1.56.77-3,2.38c-13.54,14.81-29.55,25.79-48.91,31.53a110.29,110.29,0,0,1-31.6,4.79q-4.12,0-8.31-.34c-22.81-1.88-43-9.9-60.47-24.58C26,393.42,13.47,372.35,9,346.69c-.55-3.23-.26-6.55-1-9.77V318.45c.75-3.45.43-7,1.08-10.48a104.79,104.79,0,0,1,28.23-54.68c16.88-17.49,37.27-28.19,61.26-31.7a116.19,116.19,0,0,1,16.87-1.26c23.94,0,45.86,7.86,65.77,23.19A120.51,120.51,0,0,1,195.3,257c1.11,1.18,2,1.75,3,1.75a4.89,4.89,0,0,0,2.89-1.37q31.4-25.24,62.89-50.38,47.28-37.8,94.53-75.62c.65-.52,1.26-1.08,1.93-1.56,1.85-1.32,1.9-2.67.47-4.44-4.32-5.34-8.81-10.53-13.52-15.51A325,325,0,0,0,276.54,53a308,308,0,0,0-48.9-23.45c-1.22-.46-2.44-.92-3.62-1.46-1-.43-2.26-.81-2.17-2s1.36-1.54,2.35-1.9c6.91-2.47,14-4.53,21-6.42a306.56,306.56,0,0,1,48.82-8.87c4.78-.47,9.63-.18,14.41-.83h2.13a1.41,1.41,0,0,0,1.06.38c.26,0,.52,0,.78,0l.29,0,.29,0c.26,0,.53,0,.79,0A1.4,1.4,0,0,0,314.86,8h25.57a1.41,1.41,0,0,0,1.06.38c.26,0,.52,0,.78,0l.29,0,.29,0c.26,0,.53,0,.79,0A1.4,1.4,0,0,0,344.69,8h1.42m.57-8H307.93l-.54.07a68,68,0,0,1-7.1.44c-2.26.06-4.59.12-7,.36a315.27,315.27,0,0,0-50.1,9.1c-8.52,2.27-15.4,4.38-21.67,6.62l-.2.07c-5.74,2.06-7.21,5.89-7.44,8.74-.18,2.57.43,7.21,6.65,9.86l.2.09c1.4.64,2.77,1.16,4.1,1.66a301.21,301.21,0,0,1,47.64,22.84,318.58,318.58,0,0,1,69.18,55.51c3.37,3.56,6.67,7.28,10,11.3l-45.35,36.28q-23.62,18.92-47.27,37.81l-12.2,9.76c-15.76,12.62-32,25.63-48.07,38.52a110.6,110.6,0,0,0-12.69-11.85c-21.41-16.49-45.18-24.85-70.65-24.85a126.22,126.22,0,0,0-18,1.34c-25.49,3.73-47.64,15.19-65.86,34.06A113.27,113.27,0,0,0,1.22,306.5a44.89,44.89,0,0,0-.62,6,27.59,27.59,0,0,1-.42,4.22l-.18.84v20.2l.19.85a27.22,27.22,0,0,1,.39,4,44.44,44.44,0,0,0,.5,5.4c4.76,27.14,18.08,50.07,39.6,68.18,18.41,15.5,40.26,24.4,65,26.43,3,.25,6,.37,9,.37a117.35,117.35,0,0,0,33.88-5.12c18.74-5.56,35.66-16.13,50.33-31.44,10.43,8.32,21,16.77,31.21,25l16.82,13.46L292,481l59.64,47.71a320.35,320.35,0,0,1-29.08,29.94A316.83,316.83,0,0,1,255.15,605a289.28,289.28,0,0,1-32.91,14.37l-.33.1c-7.08,2.3-8.06,7.23-8,10S215,636.81,222,639l.31.1A323.26,323.26,0,0,0,290,654.16c2.78.31,5.48.4,8.08.49a68.66,68.66,0,0,1,8.41.61l.63.1h11.23l1.12-.39,1.11.39H334.9l.56-.23.56.23h10.59l.49-.06c2.25-.28,4.64-.34,7.18-.41,2.37-.06,4.83-.12,7.38-.37a316.59,316.59,0,0,0,84.39-20.2,330.45,330.45,0,0,0,70.72-37.87,326.6,326.6,0,0,0,63.46-58.56c2.83-3.43,5.51-6.68,5-11.34s-3.75-7.25-7.21-10l-43.26-34.61q-43.27-34.6-86.52-69.22l-4.44-3.55c-7.9-6.33-16.08-12.87-24.14-19.3-1.88-1.49-4.71-3.74-8.57-3.74-4.57,0-7.39,3-9.26,4.93l-2.22,2.36a94.9,94.9,0,0,1-6.95,7c-19,16.51-40.54,24.88-64.12,24.88a109.78,109.78,0,0,1-14.1-.93,93.5,93.5,0,0,1-59.21-31.39c-19.87-22.3-28-48.54-24.28-78C234.4,288,247.35,266,269.46,249.45a93.92,93.92,0,0,1,57.33-19.25c3.15,0,6.39.15,9.62.44a97.63,97.63,0,0,1,65.83,34.13,11.34,11.34,0,0,0,8.83,4.39,12,12,0,0,0,7.36-2.68l.23-.17,1.87-1.46,67.75-54.2c24-19.18,48.74-39,73.12-58.49l5.45-4.37c4.37-3.52,8.9-7.15,13.37-10.68,5.55-4.38,6.47-10.93,2.35-16.7-.54-.76-1.08-1.39-1.52-1.9l-.4-.47a317.7,317.7,0,0,0-38.93-39.71,328.43,328.43,0,0,0-58.39-40.11A323.28,323.28,0,0,0,364.59,1.14c-3-.34-5.92-.42-8.73-.5a77.2,77.2,0,0,1-8.61-.56L346.68,0Z"/></g></g></svg>