<svg xmlns="http://www.w3.org/2000/svg" viewBox="0 0 899.32 797.03"><defs><style>.cls-1{fill:#fff;}.cls-2{fill:#231f20;}</style></defs><g id="Layer_2" data-name="Layer 2"><g id="Layer_1-2" data-name="Layer 1"><g id="Layer_2-2" data-name="Layer 2"><g id="Layer_1-2-2" data-name="Layer 1-2"><path class="cls-1" d="M449.78,797H259.24c-26,0-46-11.4-59.07-33.68-33.94-58.09-67.39-116.46-101-174.72-29.42-51-58.68-102-88.2-152.78-14.34-24.66-14.76-49-.44-73.79Q105,198.53,199.4,34.93C212.53,12.23,232.57.15,258.9.12q190.32-.24,380.64,0c27,0,47.19,12.19,60.63,35.44q94.26,163,188.42,326.15c14.17,24.51,14.37,48.86.19,73.4q-94.49,163.54-189,327.08C686.56,785,666.47,797,639.78,797q-95,.07-190.08,0Z"/><path class="cls-2" d="M305.2,518c2.59-.57,3.87-.35,3.44,3.1C300.91,583.05,293.08,645,284.8,706.81c-2.23,16.63-4.33,33.39-.48,50.12,1.15,5,2.33,10,6.31,14.49-21.23,1.3-41.66,1.61-59.36-11.94-2.9-2.2-4.53-5.29-6.27-8.29q-74.53-129-149-258.08c-13.4-23.2-26.25-46.74-40.39-69.48-10.7-17.18-10.31-32.56-.09-50.1q94.95-163,188.71-326.59c8-13.84,21.2-17.76,35.12-20.94a47.26,47.26,0,0,1,10.42-.77q152.94-.06,305.86,0c1.75,0,3.59-.48,5.71.72-10.84,6.93-18.89,16.15-26.1,26.34-9.31,13.15-15.91,27.68-22,42.41-11,26.62-19.33,54.14-26.35,82.05-7.84,31.17-13.76,62.72-18.94,94.42-5.63,34.51-9.71,69.21-13.11,104-.3,3.1-1.12,5.15-4.53,6.72a237.47,237.47,0,0,1-38,13.24c-9,2.4-17.76,5.66-27,7.05-2.93,1.35-6.27,1.39-9.17,2.86-3.83,1-7.71,1.92-11.48,3.16-3.35,1.11-4.08,0-3.75-3.22,1.37-13.7,2.67-27.41,3.79-41.14,1.34-16.38,2.46-32.78,3.67-49.16,1.14-7,1.68-14,2.37-21.06a58.91,58.91,0,0,0-.36-14.29c.38-16.14,1-32.29,1.1-48.43.14-32.68-.72-65.31-10.29-96.93-4-13.13-9.68-25.49-20.55-34.57-11.41-9.47-24.4-9.69-37.67-5.47-18.91,6-33.41,18.32-46.35,33a286.18,286.18,0,0,0-45.12,69.49C221,219.24,211.67,242.62,209.41,268a92.19,92.19,0,0,0,.55,23.41,36.85,36.85,0,0,0,5.65,14.78c4,5.94,8.81,6.38,13.78,1,4.07-4.36,6.37-9.8,8.48-15.18,7.48-19.06,15.49-37.87,25.33-55.84,7.1-13,15.06-25.38,25.49-36a49,49,0,0,1,10.21-7.92c12.1-7.06,22-3.42,27,9.68,4.29,11.26,4.64,23.11,5,34.88,1.16,37.83-1.59,75.53-4.62,113.2-1.91,23.72-4.24,47.4-6.29,71.1-.2,2.29-.82,3.64-3.24,4.21-6.63,1.58-13.24,3.24-19.78,5.1-11.72,3.32-22.38,8.36-29.33,19.06-4.76,7.32-6.3,15.7-7.61,24.07-1.79,11.43-1.86,22.9,1,34.21,3.71,14.5,13.39,17.63,28.16,14.3C294.39,520.25,299.83,519.28,305.2,518Z"/><path class="cls-2" d="M387,492.81c15.63-5.38,31.53-9.95,46.94-16,1.31-.78,2.84-1,4.17-1.74,8.79-3.89,17.65-7.59,26.31-11.75,4-1.91,4.75-1.09,4.52,3.05-1.46,25.94-1.88,51.91-.92,77.86,1.46,39.64,4.61,79.12,17.15,117.13,7,21.11,16,41.32,33,56.48a50.68,50.68,0,0,0,35.42,13.36c19.59-.23,34.49-10,47.58-22.87,22-21.68,36.34-48.41,49-76.2,5.53-12.12,11.45-24.08,13.32-37.43,1.2-8.55,1.75-17.2,2.59-25.8a4.14,4.14,0,0,0,0-5c-.91-6.57-.51-13.33-2.76-19.72a29,29,0,0,0-1.89-4.58c-4.25-7.76-10.69-7.86-15.33.09a201,201,0,0,0-9.7,19.15c-8,17.94-16.62,35.56-28.27,51.49-8.54,11.68-18.88,21-33.54,24.22-10.29,2.26-18.49-1.26-24.68-9.79-10.65-14.67-14.34-31.72-16.68-49.1-5.78-43-5.66-86.33-4.3-129.64.21-6.66.34-13.33.3-20a10.44,10.44,0,0,1,3.82-8.68,296.23,296.23,0,0,0,28.29-28.62c11.67-13.24,21.45-27.82,30.55-42.91,18.4-30.52,30.17-63.63,38.34-98.1A467,467,0,0,0,642,166.28c1.63-28.61,2.86-57.22-1.92-85.68C637,62,632,44.23,619.8,29.25c-.65-1.5-3.6-1.46-2.67-4,13.71-.47,27.26-.15,40,6,7.54,3.61,13.58,8.32,17.92,15.85q94.5,164.19,189.53,328.09c9.63,16.56,9.16,31.15-.37,47.53Q779,569.27,694.47,716.35c-6.08,10.52-12.67,20.79-18.08,31.65-5.62,11.27-15.11,16.87-26.21,20.67a60.36,60.36,0,0,1-19.58,3.23q-151.65-.09-303.31-.06h-4.53c2.8-4.32,5.68-8.08,7.82-12.21,8.95-17.25,12.46-36,15.11-55,8.92-64.12,16.54-128.41,24-192.71.12-1,.33-2,.5-2.95.48-9.59,6.27-14,15.08-15.47C385.91,493.36,386.58,493.43,387,492.81Z"/><path class="cls-2" d="M535.08,340.16c1.07-11,2-22.07,3.21-33.09,4-38.41,9.52-76.62,16.93-114.53,5.33-27.27,11.46-54.38,21.24-80.48,2.55-6.81,5.56-13.54,10.87-18.89s9.85-5,13.46,1.61c3.9,7.07,4.76,15,4.91,22.73.93,46.8-2.44,93.13-16.7,138.12-10.08,31.81-26.74,59.57-50.71,82.87C537.46,339.31,536.85,340.33,535.08,340.16Z"/></g></g></g></g></svg>