<svg xmlns="http://www.w3.org/2000/svg" viewBox="0 0 865.95 380.2"><defs><style>.cls-1{fill:#e8a326;}.cls-2{fill:#fff;}</style></defs><g id="Layer_2" data-name="Layer 2"><g id="Layer_1-2" data-name="Layer 1"><path class="cls-1" d="M394.13,377.15a3,3,0,0,1-3-3.06l0-1q0-1,0-2V108.87a3,3,0,0,1,3-3h.09a8.16,8.16,0,0,1,5,2.18,8.73,8.73,0,0,0,.7.54c3,2,6,4.12,8.88,6.15,2.16,1.52,4.32,3,6.5,4.54a6.81,6.81,0,0,1,3.19,6.12c-.07,9.3-.07,18.77-.06,27.93v38.55c0,51.56,0,104.87-.06,157.31,0,.31,0,.54,0,.73h.46c3.77-.1,7.77-.15,12.24-.15,4.66,0,9.3.06,13.63.12-.05-70.22-.07-145.54,0-230.25,0-.59,0-.66-.68-1.12-15.2-10.33-31.26-21.32-52.08-35.63a3.61,3.61,0,0,0-2.25-.44H361.94c-24.34,0-49.52,0-74.28.06A6.31,6.31,0,0,1,282.88,81a6.23,6.23,0,0,1-1.51-4.63c.09-16.55.09-33.39.08-49.67V9.17c0-.74.05-1.44.09-2.11l.06-.85A3,3,0,0,1,283,3.83,5.6,5.6,0,0,1,286.07,3c.33,0,.66,0,1,0s.36,0,.54,0q16.59,0,33.17,0h75a8.91,8.91,0,0,1,5.07,1.75q11.53,7.88,23.1,15.72c14.38,9.77,29.25,19.87,43.77,30A22.12,22.12,0,0,0,481.17,55h.35c9.54-.12,19.61-.18,32.64-.18l18.9,0,18.88,0H554c0-.43,0-.93,0-1.41V50.66q0-9.45,0-18.89c0-.2,0-.51,0-.81h-.77l-38.74,0c-16.76,0-29.7,0-41.94.06a19.23,19.23,0,0,1-11.4-3.47l-5.58-3.83c-5.3-3.65-10.77-7.42-16.23-11l-.13-.09a15,15,0,0,1-3.61-3l-.08-.1a4.07,4.07,0,0,1-1.09-3.61,3.81,3.81,0,0,1,2.4-2.63A2.92,2.92,0,0,1,438,3.06H575.34L576,3c.34,0,.69,0,1,0a6.62,6.62,0,0,1,2.93.61,3.05,3.05,0,0,1,1.06.86,5.83,5.83,0,0,1,1,4.33c0,.17,0,.33,0,.5q0,10.89,0,21.78c0,14.79,0,30.09.06,45.13A6.3,6.3,0,0,1,580.58,81a6.23,6.23,0,0,1-4.64,1.54c-17.66-.05-35.34-.07-52.61-.07-17,0-34.17,0-50.91.07a16.31,16.31,0,0,1-9.86-3.05c-17-11.7-34.27-23.53-51-35Q401.72,37.77,391.88,31A4.77,4.77,0,0,0,389,30.1q-19.92,0-39.81,0c-14.61,0-27.81,0-40.38-.08h0v.07c.12,7.41.13,15.31,0,25.52l18.19,0h14.22c16.56,0,34.2,0,51.86-.2h.18A14.56,14.56,0,0,1,402,58.33l15.2,10.37C434,80.15,451.34,92,468.46,103.56c3.09,2.08,3.51,4.65,3.51,7.11q0,117.91,0,235.82v27.66a3,3,0,0,1-3,3Z"/><path class="cls-2" d="M286.07,6c.51,0,1,.08,1.53.08h0q16.62,0,33.26,0h74.91a6,6,0,0,1,3.38,1.22C421.44,22.51,443.85,37.55,466,53a25.22,25.22,0,0,0,15.16,5h.39c10.86-.14,21.73-.18,32.6-.18,12.59,0,25.17.06,37.75.06h.78c4.31,0,4.32,0,4.32-4.4q0-10.83,0-21.65c0-3.67-.14-3.81-3.78-3.81l-38.78,0q-21,0-41.92.06h-.07a16.19,16.19,0,0,1-9.62-2.95c-7.27-5-14.49-10-21.86-14.85a12.73,12.73,0,0,1-3.05-2.46c-.41-.5-1.14-1.17.07-1.68H575.34c.56,0,1.13-.06,1.69-.06a3.68,3.68,0,0,1,1.62.31c.72.92.37,2,.37,3,0,22.31,0,44.61.07,66.92,0,2.48-.52,3.28-3.15,3.28h0q-26.25-.08-52.5-.07-25.5,0-51,.07h-.06A13.36,13.36,0,0,1,464.26,77c-23.51-16.23-47.12-32.31-70.69-48.44A7.78,7.78,0,0,0,389,27.1h0q-19.89,0-39.77,0-20.19,0-40.39-.08h0c-2.52,0-3,.74-3,3.12.15,8.71.11,17.43,0,26.15,0,1.86.56,2.32,2.35,2.32h0l18.76,0H341.2c17.3,0,34.59,0,51.88-.2h.15a11.64,11.64,0,0,1,7.09,2.36C422.46,75.9,444.57,91,466.78,106c1.89,1.28,2.19,2.66,2.19,4.63q0,131.75,0,263.48H394.13c0-1,.06-2.06.06-3.09q0-129.48,0-259v-3.23c1.85.06,2.91,1.38,4.13,2.2,5.17,3.49,10.22,7.15,15.36,10.68a3.86,3.86,0,0,1,1.89,3.62c-.1,12.28-.05,24.56-.05,36.84q0,93.48-.06,187c0,2.69.45,3.74,3.23,3.74H419c4.06-.11,8.12-.15,12.18-.15,4.66,0,9.32.06,14,.12h.14c2,0,2.51-.66,2.5-2.69q-.09-115.28,0-230.56a3.85,3.85,0,0,0-2-3.6q-26.1-17.72-52.07-35.62a6.43,6.43,0,0,0-3.95-1h0q-51,0-102.08.06h-.05c-2.39,0-3.25-.44-3.24-3.13.13-22.4.07-44.8.08-67.2,0-.94.09-1.87.14-2.8A2.68,2.68,0,0,1,286.07,6m0-6a8.62,8.62,0,0,0-4.65,1.28,6,6,0,0,0-2.82,4.77c0,.27,0,.53-.05.8-.05.69-.1,1.48-.1,2.32V26.75c0,16.25,0,33.06-.08,49.58a9.34,9.34,0,0,0,2.38,6.76,9.22,9.22,0,0,0,6.86,2.41h.07c24.7-.06,49.83-.06,74.13-.06h27.93c.39,0,.6,0,.72,0,20.45,14.06,36.32,24.92,51.3,35.1,0,82.77,0,156.83,0,226.28-3.43,0-7-.08-10.61-.08s-6.7,0-9.74.09c.06-51.65.06-104.12.06-154.89V162.21c0-3,0-5.94,0-8.9,0-9.15,0-18.6.06-27.89a9.83,9.83,0,0,0-4.49-8.62c-2.16-1.48-4.35-3-6.47-4.5-2.91-2-5.91-4.16-8.94-6.2l-.49-.39a11.17,11.17,0,0,0-6.81-2.84h-.18a6,6,0,0,0-6,6v17.89q0,122.16,0,244.3c0,.65,0,1.3,0,1.94l0,1a6,6,0,0,0,6,6.13H469a6,6,0,0,0,6-6V346.2c0-77.19,0-157,0-235.53a10.74,10.74,0,0,0-4.83-9.6C453,89.49,435.61,77.62,418.8,66.15l-15.1-10.3a17.57,17.57,0,0,0-10.47-3.4H393c-17.64.18-35.27.2-51.81.2H311.81c.07-7.5.06-13.74,0-19.56,11.67,0,23.93.06,37.37.06,11.73,0,24.38,0,39.78,0a1.8,1.8,0,0,1,1.23.41L409.92,47c16.71,11.42,34,23.24,50.93,34.92a19.38,19.38,0,0,0,11.5,3.58h.08c16.76-.05,33.91-.07,51-.07,17.24,0,34.91,0,52.49.07h.05a9.13,9.13,0,0,0,6.77-2.42,9.25,9.25,0,0,0,2.38-6.88c-.06-15-.06-30.29-.06-45q0-10.93,0-21.86a1.34,1.34,0,0,0,0-.24,8.72,8.72,0,0,0-1.66-6.43A6,6,0,0,0,581.26.92,9.47,9.47,0,0,0,577,0c-.46,0-.88,0-1.21,0l-.48,0H438a6,6,0,0,0-2.34.47,6.76,6.76,0,0,0-4.15,4.71,6.86,6.86,0,0,0,1.72,6.24l0,.06a17.51,17.51,0,0,0,4.29,3.59l.12.09c5.43,3.55,10.9,7.31,16.18,11L459.45,30a22.28,22.28,0,0,0,13,4h.1c12.23,0,25.15-.06,41.89-.06H551q0,8.69,0,17.35v.52l-18,0q-9.45,0-18.89,0c-13,0-23.12.06-32.68.18h-.31A19.36,19.36,0,0,1,469.43,48C454.89,37.92,440,27.81,425.62,18c-7.57-5.14-15.4-10.46-23.08-15.71A11.82,11.82,0,0,0,395.83.06h-75q-16.64,0-33.27,0l-.32,0c-.32,0-.73,0-1.21,0Z"/><path class="cls-1" d="M127,372.93c-3.5,0-7.09-.15-10.68-.44a120.9,120.9,0,0,1-68-27.39c-22-18-36.39-41.44-42.87-69.79a60.49,60.49,0,0,1-1.91-13A3,3,0,0,1,3,260.54V225.11a3,3,0,0,1,2.53-3c4.37-.7,8.78-1.87,13-3,1.52-.4,3-.81,4.56-1.19q18.36-4.64,36.71-9.32l18.7-4.75a4.87,4.87,0,0,1,1.25-.14h.45a3,3,0,0,1,3,3v3.13q0,6.28,0,12.55c0,9.15-.09,18.6.09,27.88a43.07,43.07,0,0,0,84.82,9.59,42,42,0,0,0,1.35-9.52c.05-3.27.12-6.54.18-9.81.18-8.73.36-17.75.15-26.59-.12-5-.12-10.06-.13-15,0-4.49,0-9.14-.1-13.69-.07-3.36,1.54-5.48,4.77-6.28q11.31-2.82,22.6-5.7l14.6-3.69c3.58-.9,7.33-1.79,11.46-2.73v0c-.11-5.5-.09-11.08-.07-16.47,0-2,0-4.05,0-6.08V123.2c0-30.48,0-62,.05-93v-.12c-4.1.09-8.44.13-12.9.13-4.21,0-8.55,0-13.26-.11q0,26.19,0,52.38,0,34.31.07,68.62c0,3.88-1.66,5.95-5.43,6.73-5.84,1.21-11,2.5-15.88,4a7.34,7.34,0,0,1-2.13.36,3.87,3.87,0,0,1-2.82-1.11,5.26,5.26,0,0,1-1.19-4c0-5.16,0-10.32,0-15.47V127.24q0-58.76,0-117.52c0-.82,0-1.63.09-2.45,0-.35,0-.69.05-1A3,3,0,0,1,170.85,4a4.76,4.76,0,0,1,3-.93l.69,0,.31,0H245l.31,0L246,3a4.74,4.74,0,0,1,3,1,3,3,0,0,1,1.19,2.22q0,.46.06.93c0,.74.1,1.51.1,2.31V49.18q0,67.88.05,135.73c0,2.6-.59,5.72-5.25,6.86-9.22,2.25-18.58,4.64-27.63,6.94q-10.06,2.56-20.14,5.09a4.1,4.1,0,0,0-.49.14c0,.09,0,.22,0,.38.06,10.24,0,20.64,0,30.7q0,10.38,0,20.77c0,10.24-1.56,18.36-5,25.56a40.92,40.92,0,0,1-7.3,10.85q-1.77,1.83-3.52,3.69A128.75,128.75,0,0,1,167,309.29a47.78,47.78,0,0,1-25.32,10c-4.25.39-8.8.57-14.31.57-3.64,0-7.32-.08-10.88-.16l-1.48,0a47.35,47.35,0,0,1-33.61-14.16c-1.42-1.42-2.91-2.85-4.35-4.22-5.27-5-10.71-10.22-14.51-17-4.12-7.34-6.06-13.77-6.1-20.24-.06-9.51-.05-17.35,0-24.54-8.05,2.15-16.24,4.16-24.17,6.1l-2,.49v.11c1.15,22.14,8.29,42.3,21.84,61.61C62.58,322.74,78.29,331,92.28,337a109.48,109.48,0,0,0,33,8.17c.63.06,1.3.09,2,.09a48,48,0,0,0,9.94-1.43l2.07-.43A119.49,119.49,0,0,0,188,321.2c7.44-5.66,12.73-13,18.39-22.32a116,116,0,0,0,15.36-43.7c1.43-9.71,1.29-19.78,1.16-29.52,0-1.85,0-3.71-.07-5.55,0-2.86.6-6.27,5.7-7.24,4.24-.8,8.55-2,12.72-3.15l2.95-.81a7.08,7.08,0,0,1,1.89-.29c1,0,4.16.35,4.21,4.91.2,17.67-.07,32.18-.85,45.68-1.33,23.28-9.53,45-24.36,64.47-17.09,22.48-39.77,37.69-67.39,45.23A117.26,117.26,0,0,1,127,372.93Z"/><path class="cls-2" d="M246,6a1.84,1.84,0,0,1,1.17.34c.06,1,.16,2.05.16,3.07q0,87.74.05,175.47c0,2.32-.49,3.34-3,4-16,3.9-31.85,8.06-47.79,12-2,.5-2.79,1.24-2.77,3.45.09,17.15,0,34.31,0,51.46,0,8.41-1,16.59-4.71,24.25a38,38,0,0,1-6.74,10.06c-5.59,5.77-10.91,11.86-17.28,16.81a44.4,44.4,0,0,1-23.74,9.39c-4.68.43-9.36.56-14,.56-4.1,0-8.2-.1-12.3-.19A44.58,44.58,0,0,1,83.53,303.4C77,296.89,69.77,291,65.16,282.84c-3.27-5.83-5.67-12-5.71-18.79-.05-8.62-.06-17.25,0-25.87,0-1.48-.12-2.14-1.09-2.14a5.65,5.65,0,0,0-1.34.23c-9.1,2.45-18.26,4.68-27.41,6.92-1.8.44-2.46,1.18-2.36,3.19,1.21,23.29,9,44.18,22.39,63.18C60.06,324.37,75,332.82,91.08,339.79a113.06,113.06,0,0,0,33.88,8.4,22.13,22.13,0,0,0,2.3.11c4.24,0,8.46-1.07,12.61-1.92a121.77,121.77,0,0,0,50-22.79c8.24-6.28,13.89-14.53,19.14-23.15a118.74,118.74,0,0,0,15.76-44.82c1.74-11.78,1.22-23.68,1.12-35.54,0-2.55.45-3.73,3.26-4.26,5.36-1,10.62-2.58,15.9-4a4.37,4.37,0,0,1,1.1-.19c.88,0,1.19.56,1.21,1.94.17,15.17,0,30.38-.84,45.48-1.33,23.18-9.65,44.27-23.76,62.83C205.88,344.05,183.87,358.67,157,366a113.27,113.27,0,0,1-30,3.92c-3.48,0-7-.15-10.45-.43a117.59,117.59,0,0,1-66.31-26.73C28.36,324.9,14.65,302,8.39,274.64a55.39,55.39,0,0,1-1.84-12.9,1.21,1.21,0,0,0-.55-1.2V225.11c6.06-1,11.94-2.74,17.88-4.24q27.71-7,55.41-14.08a6,6,0,0,1,1,0v3.13c0,13.5-.21,27,0,40.49a46.19,46.19,0,0,0,36.21,43.95,45.56,45.56,0,0,0,9.9,1.09A46.32,46.32,0,0,0,171,260.61a45.12,45.12,0,0,0,1.43-10.2c.18-12.17.61-24.35.33-36.51-.22-9.55,0-19.1-.23-28.64,0-2,.63-2.85,2.5-3.31,12.41-3.09,24.8-6.27,37.21-9.4q5.68-1.43,11.41-2.71c1.67-.37,2.35-1.09,2.31-3-.15-7.49-.06-15-.06-22.49q0-57.07.05-114.15c0-2.3-.39-3.13-2.77-3.13H223q-6.45.13-12.9.13-6.77,0-13.53-.12h-.16c-2.17,0-2.56.77-2.56,2.83.06,40.4,0,80.79.11,121.19,0,2.43-.69,3.3-3,3.78-5.43,1.12-10.83,2.43-16.14,4a4.35,4.35,0,0,1-1.27.24c-1,0-1-.77-1-2.07,0-7.31,0-14.62,0-21.93q0-62.7,0-125.41c0-1.12.09-2.24.13-3.36A1.9,1.9,0,0,1,173.82,6c.33,0,.67,0,1,0H245c.33,0,.66,0,1,0m0-6c-.29,0-.59,0-.88,0H174.69q-.44,0-.87,0a7.8,7.8,0,0,0-4.76,1.52,6,6,0,0,0-2.41,4.56c0,.33,0,.67-.05,1,0,.83-.09,1.69-.09,2.61q0,60.9,0,121.8v3.61c0,2.13,0,4.26,0,6.4,0,5.08,0,10.33,0,15.49a8,8,0,0,0,2.07,6.11,6.9,6.9,0,0,0,4.94,2,10.11,10.11,0,0,0,3-.49c4.76-1.42,9.87-2.69,15.63-3.88,5.13-1.07,7.83-4.41,7.82-9.67-.05-22.88-.06-46.14-.07-68.63q0-24.66,0-49.33c3.58,0,7,.07,10.25.07s6.71,0,9.91-.07c-.06,30.05-.05,60.54-.05,90.06v21.16c0,2,0,4.05,0,6.07,0,4.62,0,9.38,0,14.12-3.25.75-6.26,1.47-9.15,2.2q-7.31,1.83-14.6,3.69c-7.41,1.88-15.06,3.82-22.59,5.7a8.74,8.74,0,0,0-7.05,9.25c.09,4.52.1,9.15.1,13.63,0,4.92,0,10,.13,15,.21,8.77,0,17.76-.15,26.46-.06,3.28-.13,6.55-.17,9.82a39.67,39.67,0,0,1-1.27,8.86,40.33,40.33,0,0,1-38.8,30.22A40.21,40.21,0,0,1,86.3,250.24c-.18-9.24-.13-18.67-.09-27.8q0-6.28,0-12.57v-3.13a6,6,0,0,0-6-6h-.49a7.62,7.62,0,0,0-2,.23l-19,4.83c-11.93,3-24.26,6.18-36.39,9.24-1.54.39-3.07.79-4.6,1.2-4.39,1.16-8.53,2.26-12.76,2.94a6,6,0,0,0-5,5.92v35.43a6,6,0,0,0,.56,2.54,65.21,65.21,0,0,0,2,12.9c6.63,29,21.39,53,43.89,71.44a123.81,123.81,0,0,0,69.63,28.06c3.67.3,7.34.45,10.93.45a119.83,119.83,0,0,0,31.55-4.13c28.27-7.71,51.48-23.29,69-46.3,15.2-20,23.6-42.23,25-66.12.78-13.57,1.05-28.15.85-45.88-.07-6.22-4.56-7.88-7.21-7.88a10.13,10.13,0,0,0-2.68.4l-3,.81c-4.3,1.19-8.36,2.31-12.48,3.1-5.45,1-8.19,4.47-8.14,10.2,0,1.86,0,3.71.07,5.57.14,10.06.27,19.57-1.13,29a113,113,0,0,1-14.95,42.58c-5.48,9-10.58,16.12-17.65,21.49a116.42,116.42,0,0,1-47.55,21.69l-2.09.44a46.52,46.52,0,0,1-9.32,1.36c-.59,0-1.16,0-1.69-.08a106.58,106.58,0,0,1-32.1-7.93c-14.29-6.21-28.89-13.92-38.89-28.17-12.73-18.15-19.67-37-21.16-57.68,6.57-1.61,13.32-3.26,20-5,0,6.12,0,12.82,0,20.66,0,7,2.1,13.89,6.48,21.69,4,7.16,9.63,12.51,15.06,17.69,1.49,1.43,2.91,2.77,4.3,4.17a50.26,50.26,0,0,0,35.66,15l1.49,0c3.57.08,7.27.16,10.94.16,5.6,0,10.24-.19,14.59-.58a50.75,50.75,0,0,0,26.88-10.63A130.56,130.56,0,0,0,183.25,298c1.16-1.23,2.32-2.45,3.5-3.67a44,44,0,0,0,7.85-11.64c3.63-7.61,5.32-16.15,5.29-26.85q0-10.39,0-20.79c0-9.42,0-19.13,0-28.74,6.17-1.54,12.39-3.12,18.43-4.66,9-2.29,18.36-4.67,27.55-6.92,5-1.22,7.54-4.51,7.53-9.77,0-45.28,0-91.31-.05-135.83V9.44c0-.9-.06-1.76-.11-2.51L253.14,6a6,6,0,0,0-2.36-4.45A7.74,7.74,0,0,0,246,0Z"/><path class="cls-1" d="M857.64,377.2c-64.29-.05-128.29-.05-188.32-.05h-53a3,3,0,0,1-3-3V214.75a12.65,12.65,0,0,1,.22-3.14,3.72,3.72,0,0,1,3.75-2.93,12.21,12.21,0,0,1,3,.55l3.75,1c3.78,1,7.7,2,11.55,2.82,4.64.95,5.18,4.13,5.17,6.44q0,28.59,0,57.18,0,36.35-.06,72.71c0,.22,0,.4,0,.55h.4c31-.05,63.3-.07,96.13-.07s65.46,0,98.2.06h.42v-.28c-.21-8.41-.21-16.69,0-24.6v-.22h-.43c-26.63.05-54.94.07-86.58.07l-64.45,0c-2,0-3.93-.16-5.82-.31s-3.61-.3-5.36-.3c-.71,0-1.35,0-2,.07l-.55,0a4.39,4.39,0,0,1-3.4-1.39,4.54,4.54,0,0,1-1-3.69c0-.24,0-.58,0-.94s0-.47,0-.7V297.11c0-30.42,0-61.88,0-92.82,0-.19,0-.34,0-.45l-.46-.13c-9.51-2.34-19.16-4.82-28.49-7.21q-9.79-2.5-19.59-5c-3-.75-4.4-2.56-4.39-5.53q0-69.79,0-139.6V7.19A6,6,0,0,1,613.48,6l0-.14A3,3,0,0,1,614.61,4a4.62,4.62,0,0,1,3-1l.55,0H688.8l.18,3v-3a5.63,5.63,0,0,1,2.42.45,3,3,0,0,1,1.09.83,5.67,5.67,0,0,1,1.09,4.4c0,.16,0,.32,0,.47q0,22.11,0,44.2c0,33.71,0,68.57.07,102.85a6.06,6.06,0,0,1-1.39,4.52,4.26,4.26,0,0,1-3.08,1.21,8.37,8.37,0,0,1-2.31-.38c-6.15-1.73-11.54-3.12-16.49-4.25-2.85-.66-4.22-2.41-4.19-5.36.05-3.94,0-8,0-11.84V114.79c0-27.69,0-56.33.06-84.51v-.21h-.15c-3.83.07-7.86.11-12.32.11-3.83,0-7.9,0-13.14-.09.06,44.92.06,91,0,136.85l19.41,4.84q14.43,3.6,28.86,7.17c4.74,1.17,5.38,4.39,5.08,6.88a49.3,49.3,0,0,0,0,8.34c.11,2.13.22,4.33.14,6.57-.71,19.78-.63,39.93-.55,59.42.05,12.18.11,24.77,0,37.16v.21h.16c38.09-.06,76.17-.07,111.66-.07h54.56a3,3,0,0,1,3,3V315c0,18.63,0,37.9.06,56.85a4.64,4.64,0,0,1-5.3,5.31Z"/><path class="cls-2" d="M617.57,6l.79,0H689a2.88,2.88,0,0,1,1.2.18c.75.91.38,2,.38,3q0,73.53.08,147.06c0,1.89-.29,2.72-1.47,2.72a5.48,5.48,0,0,1-1.5-.27c-5.51-1.55-11-3-16.63-4.29-1.57-.36-1.88-1-1.86-2.39.07-5.44,0-10.87,0-16.31q0-52.72.06-105.44c0-2.47-.58-3.22-3-3.22h-.24q-6.13.12-12.26.11c-4.54,0-9.08,0-13.61-.09h-.14c-1.8,0-2.4.46-2.4,2.44q.09,68.75,0,137.49a2.43,2.43,0,0,0,2.19,2.81c16.12,4,32.23,8.06,48.36,12,2,.5,3.1,1.31,2.82,3.6-.61,5.05.26,10.1.08,15.16-1.16,32.21-.22,64.44-.59,96.66,0,2.5.55,3.24,3.16,3.24h0q56-.09,112-.07h54.19c0,23.81,0,47.62.06,71.43,0,1.92-.38,2.3-2.3,2.3h0q-93.74-.07-187.49-.05H616.32V214.75c0-2.31,0-3.07,1-3.07a11.5,11.5,0,0,1,2.31.47c5.12,1.32,10.2,2.75,15.37,3.8,2.23.46,2.78,1.36,2.77,3.51-.06,43.29,0,86.59-.1,129.88,0,2.71.48,3.57,3.42,3.57h0q48.06-.07,96.13-.07,49.08,0,98.17.06h0c2.66,0,3.46-.6,3.4-3.36q-.3-12.23,0-24.45c.07-2.83-.85-3.31-3.42-3.31h0q-43.38.08-86.76.07l-64.23,0c-3.74,0-7.46-.61-11.19-.61-.74,0-1.47,0-2.21.08l-.32,0c-1.1,0-1.57-.51-1.44-1.76a18.29,18.29,0,0,0,0-2q0-56.65,0-113.3c0-2.13-.52-2.94-2.75-3.49-16-4-32-8.16-48.07-12.19-1.58-.4-2.12-1-2.12-2.62q0-89.4,0-178.8a6.2,6.2,0,0,1,.13-.83,1.67,1.67,0,0,1,1.1-.32m0-6a7.63,7.63,0,0,0-4.83,1.62,6,6,0,0,0-2.19,3.71v0a8.44,8.44,0,0,0-.2,1.77V47.52c0,45.39,0,92.32,0,138.47,0,4.36,2.36,7.35,6.65,8.43,6.51,1.64,13.13,3.34,19.52,5,8.77,2.24,17.81,4.56,26.77,6.78,0,30.46,0,61.4,0,91.34v20.07c0,.26,0,.52,0,.79s0,.47,0,.56a7.24,7.24,0,0,0,7.41,8.37l.78,0c.55,0,1.12-.07,1.75-.07,1.62,0,3.32.14,5.12.29s4,.32,6.06.32l64.24,0c30.67,0,58.23,0,84.16-.06-.13,6.2-.13,12.61,0,19.11-32.9,0-65-.06-95.53-.06-31.93,0-63.4,0-93.57.06.05-23.5.05-47.35.06-70.44q0-28.48,0-57c0-6.48-4.11-8.69-7.57-9.39-3.77-.78-7.47-1.75-11.39-2.78l-3.68-1-.08,0a14.53,14.53,0,0,0-3.73-.64,6.7,6.7,0,0,0-6.66,5.19,14.92,14.92,0,0,0-.31,3.87V374.15a6,6,0,0,0,6,6h53.83c59.71,0,123.37,0,187.49.05a7.59,7.59,0,0,0,8.31-8.32c-.07-18.92-.07-38.16-.06-56.77V300.47a6,6,0,0,0-6-6H805.7c-34.75,0-72,0-109.16.06.11-11.5.06-23.12,0-34.38-.08-19.46-.16-39.57.55-59.29.08-2.37,0-4.64-.14-6.83a47.47,47.47,0,0,1,0-7.83c.23-1.9.37-8.25-7.34-10.15-9.65-2.38-19.47-4.83-28.95-7.2l-17-4.24c.06-43.94.06-88.13,0-131.47,3.84,0,7.07,0,10.14,0,3.36,0,6.48,0,9.45-.06-.06,27.31-.06,55,0,81.86v20.74c0,1.49,0,3,0,4.46,0,3.86,0,7.86,0,11.77-.07,5.93,4.06,7.76,6.52,8.32,4.9,1.12,10.25,2.5,16.34,4.22a11.58,11.58,0,0,0,3.13.49,7.31,7.31,0,0,0,5.2-2.09c2.27-2.28,2.27-5.34,2.27-6.64-.06-34.3-.06-69.17-.07-102.9q0-22.05,0-44.11a1.94,1.94,0,0,1,0-.24,8.57,8.57,0,0,0-1.77-6.58A6,6,0,0,0,692.63.77,8.69,8.69,0,0,0,689,.06H618.26l-.69,0Z"/></g></g></svg>