<svg xmlns="http://www.w3.org/2000/svg" viewBox="0 0 464.64 673.17"><defs><style>.cls-1{fill:#fff;}</style></defs><g id="Layer_2" data-name="Layer 2"><g id="Layer_1-2" data-name="Layer 1"><path class="cls-1" d="M464.64,280.42c-1.66,3.72-1.4,7.77-2,11.66-1.62,11.23-5.51,21.89-8,32.89-3.29,14.4-3.95,29-4.42,43.67-.91,28.73-9.05,55.61-21.22,81.37-10.8,22.87-24.09,44.44-35.45,67-10.45,20.77-20.73,41.65-31.89,62.05-5,9.07-8.45,18.88-14.1,27.54-6.49,10-12.67,20.18-19.32,29.93-12.21,17.88-30.31,27.79-51.85,31-11.18,1.65-22.36,3.21-33.54,4.83-.74.1-1.67-.2-2,.82h-17c-6-2.61-12.5-2.26-18.77-3.17-14.1-2.06-28.41-3.43-41.42-9.68-18.68-9-31.66-23.93-40.79-42.11C113.58,599.74,106,580.44,96.59,562c-17.47-34.09-36.81-67.15-55.25-100.7-11-20-20.07-40.69-24-63.36-1.77-10.23-2.23-20.55-2.55-30.9-.6-19.31-4.74-38.1-8.66-56.92C4.19,300.81,2.05,291.51.85,282c-.08-.64,0-1.37-.85-1.61v-4.85a6.19,6.19,0,0,0,0-4.85V244.05c.94-3.23.16-6.54.42-9.81V222.31a8.46,8.46,0,0,1,2.51-6.56c11.36-12.27,14.17-27,12.39-43.08-3.39-30.66,6.11-56.46,29.36-77a11.16,11.16,0,0,1,5.38-2.58A25.46,25.46,0,0,0,66.38,82.85c20.13-27.65,47.93-44.2,79.73-55a313,313,0,0,1,30.56-9,35.83,35.83,0,0,0,17.08-9.48A30.29,30.29,0,0,1,213.86.42c.65,0,1.35.11,1.89-.42h29.09c2.57.8,5.29.53,7.89,1.13,7.87,1.8,15.29,4.48,20.62,11,3.51,4.26,8.3,5.68,13.38,6.75,16.49,3.51,32.63,8.2,48.06,15,18.1,8,34.66,18.37,48.73,32.51,6.44,6.48,12.57,13.3,19.72,19.06a121.86,121.86,0,0,0,12,8.21c13.62,8.52,24,19.85,29.63,35.09a82.58,82.58,0,0,1,4.72,24.88c.68,15,.93,30.07,2.46,45,.49,4.84,2.17,9.23,5.93,12.45,4,3.4,6.46,7.41,6.69,12.7v.81a45.86,45.86,0,0,0,0,13.74v30.71a10.48,10.48,0,0,0,0,6.46Z"/><path d="M8.39,248.8c0-6.15,0-12.88,0-19.61a12.4,12.4,0,0,1,3.81-9.37c9.41-9.44,12.67-21.35,12.81-34.24.09-8.33-.46-16.67-.62-25-.43-23,10-41.06,25.78-56.72A4.53,4.53,0,0,1,53,102.52,27.91,27.91,0,0,0,72.52,90.77c22.14-31,54-46.76,89.14-57.52,5.66-1.73,11.31-3.59,17.09-4.74,8.54-1.68,15.31-6.07,21.48-12,6.54-6.22,15.07-7.51,23.54-8.27a74.14,74.14,0,0,1,28.34,2.85c6.69,2,12.73,5,17.26,10.58,2.74,3.39,6.53,4.91,10.77,5.78C306,32.79,330.79,41,353.33,55.08a163.08,163.08,0,0,1,33.79,28.6,96.53,96.53,0,0,0,23.08,18.8c18.06,10.38,27,26.68,29.23,46.69,1.62,14.82,1.78,29.79,2.58,44.7a67.21,67.21,0,0,0,1.63,13.19c1,3.88,2.71,7.55,6,9.82,4.87,3.39,6.68,8.17,6.72,13.54.13,20,1.25,40.11-2.15,60-1.57,9.18-4.64,17.95-6.76,27-2.82,11.95-4.93,24-4.84,36.31.32,39.89-11.9,76.24-31,110.61S375,533.82,357,568.74c-9,17.45-17.49,35.16-27.63,52-13.95,23.17-34.39,36-61,39.47-11.2,1.44-22.36,3.22-33.56,4.67-4.45.58-8.79-.92-13.17-1.47-12.14-1.52-24.26-3-36.29-5.41-22.15-4.39-38.27-16.87-50-35.75-6.63-10.69-11-22.44-16.11-33.83-16.16-35.86-35.71-69.92-54.84-104.22-9-16.08-18.34-32-26-48.73a170.74,170.74,0,0,1-15.48-70c-.22-20.17-4.42-39.79-8.74-59.36C10,287.44,6.79,268.67,8.39,248.8Z"/><path class="cls-1" d="M223.33,323.1v49.27c0,5.79,0,5.64-6,5.86-27.7,1-51.45-9.29-73.27-25.25-14.26-10.41-27-22.65-40.74-33.69-5.21-4.18-5.67-9.32-1.28-14.51,16.38-19.37,36.62-32.26,62.17-35.69,18.76-2.52,37.61-.78,56.42-1,3,0,2.71,1.76,2.71,3.67Q223.33,297.45,223.33,323.1Z"/><path class="cls-1" d="M243.73,322.83V271.94c0-1.84-.46-3.69,2.64-3.7,16,0,31.95-1.23,48-.09,26.68,1.89,48.87,12.62,66.78,32.4,1.53,1.69,3.14,3.32,4.58,5.1,3.91,4.85,3.83,7.91-.5,12.37-4.61,4.74-10,8.56-15.17,12.66-13.17,10.46-26.31,20.94-40.07,30.63-19.1,13.45-40.56,17.81-63.47,16.93-2.85-.11-2.79-1.71-2.79-3.72Q243.76,348.68,243.73,322.83Z"/><path class="cls-1" d="M383.14,333.37c-.73,9.53-3.75,17.77-10.49,25.07-14.81,16-30.13,31.53-45.23,47.25-5.06,5.28-10.54,7-17.79,4.11-15.25-6-30.7-11.57-47-14.15a92.94,92.94,0,0,0-15.25-1.35c-1.86,0-3.7-.11-4.1-2.31-.46-2.55,2-2.84,3.39-3.1,5-1,10.12-1.39,15.15-2.22,25-4.1,47.39-14.63,68.4-28.42a313.65,313.65,0,0,0,36.19-27.73,33,33,0,0,1,5.46-4.12c2.25-1.29,4.71-3.29,7.41-1.35A8.48,8.48,0,0,1,383.14,333.37Z"/><path class="cls-1" d="M222.87,390.73c-5.83,1.76-11.63,3.55-17.45,5.27-15.84,4.68-31.69,9.3-47.53,14-5.91,1.74-10.69.76-15.3-3.92-17.93-18.22-35.84-36.46-53.23-55.19A20.45,20.45,0,0,1,86.44,327c.65-1.17,1.09-1.94,2.7-1.44,4,1.25,7.81,2.53,11.16,5.33,18.29,15.3,37.45,29.36,58.8,40.22a181.37,181.37,0,0,0,61.46,18.37c.66.08,1.32.22,2,.36C222.6,389.87,222.62,390.07,222.87,390.73Z"/><path class="cls-1" d="M226.94,485c0,5-.1,10,.05,14.94.07,2.44-.78,3-3.08,2.56-7.24-1.48-14.5-2.85-21.76-4.22-12.46-2.35-23.12-8.55-33.31-15.67-9.7-6.78-19.27-13.74-28.84-20.71-6.09-4.44-6.76-9.06-2.27-15.18,2.94-4,5.87-8.05,9.08-11.84,4.85-5.71,9.87-6.92,16.07-3,18.28,11.49,37.7,20.64,57.53,29,4.78,2,7,5.5,6.66,10.78-.25,4.42,0,8.88,0,13.32Z"/><path class="cls-1" d="M200.06,262.66c-8.48.44-16.91-.42-25.37-.81-27.33-1.25-51.19,7.74-72.29,24.75a38.25,38.25,0,0,1-4.87,3.57c-4.59,2.63-7.92,1.57-10.25-3.12a14.88,14.88,0,0,1-.88-2.24c-4.91-15.77-9.93-31.5-14.64-47.33-2.83-9.49.26-13.83,10.18-15.25a60.17,60.17,0,0,0,10.47-2.9c7.68-2.55,10.79-1.45,15.16,5.52a78.42,78.42,0,0,0,12.13,15.54c10.92,10.35,24.1,13.94,38.88,13.41,19.09-.69,38.18.22,57.27.77,3.16.09,7.39,2.06,7.24,3.85-.23,2.78-4.11,4.11-7.3,4.2C210.55,262.76,205.31,262.66,200.06,262.66Z"/><path class="cls-1" d="M294,254.49c8.74-1.2,17.49-.14,26.21-1.07,17.44-1.87,29.61-11.69,38.75-26,5.07-7.93,8.08-9.18,17.4-7.12a112.54,112.54,0,0,1,10.92,2.76c7.49,2.46,9.75,6.47,8.36,14.17a134.69,134.69,0,0,1-5.06,18.64q-4.79,14.33-9.7,28.6c-2.49,7.25-6.3,8.65-12.9,4.54-5.93-3.7-11.92-7.37-17.5-11.55C335.12,266,317.58,262.05,298.89,262c-10.88,0-21.77.42-32.66.48-6.85,0-13.7-.29-20.56-.3-1.89,0-2.59-.89-3.07-2.46-.53-1.76.85-2,1.89-2.51,3-1.42,6.06-2.77,9.58-2.75C267.38,254.54,280.68,254.49,294,254.49Z"/><path class="cls-1" d="M242.54,481.11c0-4.85.18-9.7-.07-14.54-.14-2.92.81-4.23,3.67-5.05C259.71,457.6,273,453,285.46,446.1a108.24,108.24,0,0,0,18.47-12.94c4.14-3.59,9.83-3.66,13.71.12,5.61,5.48,10,12,14.72,18.17,1.16,1.53.42,2.45-.53,3.46-19.28,20.32-41.05,36.74-68.7,44a53.26,53.26,0,0,1-17.21,1.3c-2.44-.16-3.56-1-3.44-3.74C242.69,491.34,242.54,486.22,242.54,481.11Z"/><path class="cls-1" d="M193,248.21c-14.1.21-28.24,1-42.12-2.53a78.79,78.79,0,0,1-17.94-7c-8.84-4.73-13.47-12.38-15.69-21.85-.65-2.8.47-3.41,3-3.49q27.19-.85,54.39-1.9,23.14-.87,46.29-1.95c2.24-.11,2.75.69,2.74,2.73-.06,11-.1,22.06,0,33.09,0,2.6-.92,3-3.31,3C211.31,248.13,202.17,248.22,193,248.21Z"/><path class="cls-1" d="M242.42,230.93c0-3-.2-5.94,0-8.88.48-6,3.17-8.93,8.94-10.42a45.11,45.11,0,0,1,10.42-1c28-.61,55.92,1.56,83.86,2.68,3.31.14,2.78,2.12,2.63,4.1-.87,11.8-10.61,22.89-23.28,26.69-5.61,1.69-11.44,1.81-17.17,2.14-20.14,1.17-40.29,1.92-60.43,3-3.66.19-3.93-2.37-4.23-4.63-.58-4.52-.75-9.1-1.1-13.65Z"/><path class="cls-1" d="M387.9,386.79c-.57,12.59-5.41,23.49-12.91,33.32A73.19,73.19,0,0,1,349,441.38c-2.12,1.05-3.44,1-5.1-.95-3.66-4.28-7.71-8.23-11.48-12.43-5-5.6-5-7.59.24-12.87C345.78,402,359.6,389.6,373.16,377c2.16-2,4.49-3.89,6.45-6.08,2.23-2.51,3.34-1.58,4.61.84A34.12,34.12,0,0,1,387.9,386.79Z"/><path class="cls-1" d="M86.25,366c7.13,8.4,15,16.06,22.77,23.88,8,8.12,16.28,16,24.37,24.11,6,6,5.88,10.24-.52,15.94a121.35,121.35,0,0,0-10.61,11c-1.09,1.25-1.84,1.62-3.3.63-12.53-8.52-24.36-17.79-32.27-31.05-8.19-13.73-8.62-27.93-2-42.41a11.22,11.22,0,0,1,.75-1.41A4.47,4.47,0,0,1,86.25,366Z"/><path class="cls-1" d="M434.58,247.91A42.73,42.73,0,0,1,429,266.77c-8.33,15.48-19.49,29-29.75,43.18-1.58,2.18-4.09,3.49-6.74,2.63-3.21-1-4.53-4.08-5.43-7.08a10.87,10.87,0,0,1,.55-6.74q11.54-32.91,23.06-65.83c.41-1.17.56-2.46,2.47-2.64C423.87,229.28,434.47,238.36,434.58,247.91Z"/><path class="cls-1" d="M80.27,304.24c-.11,4.37-3.77,4.91-6.75,6.3s-4.31.12-5.93-2.15C57.36,294.06,46.44,280.2,38.1,264.6c-2.21-4.14-4.39-8.29-5.22-13-1.3-7.49,1.18-13.26,7.65-17.11.69-.41,1.42-.77,2.14-1.12,3.56-1.69,7.5-3.36,11.2-2.78,4.53.7,3.71,5.91,4.86,9.11,6.88,19.08,13.37,38.3,20,57.47A23.5,23.5,0,0,1,80.27,304.24Z"/><path class="cls-1" d="M226.14,427c0,5.93-.06,11.86,0,17.78,0,1.94-.4,2.87-2.6,3-19,1.38-34.21-6.64-47.77-18.83-2.71-2.44-1.85-9.53,1.27-11.1,14.29-7.14,28.89-13.16,45.41-12.31,3.12.16,3.82,1.17,3.72,4.05C226,415.43,226.14,421.22,226.14,427Z"/><path class="cls-1" d="M242.38,429.49c0-5.24-.13-10.49,0-15.73.16-5,5.29-8.65,10.1-7.49,13.72,3.33,27.12,7.75,40.66,11.72,3.12.91,4,4.27,1.58,6.89-10.5,11.37-23,19.35-38.47,22a74.23,74.23,0,0,1-11.24.95c-2.32.05-3-.78-3-3,.13-5.12,0-10.23,0-15.35Z"/><path class="cls-1" d="M400.71,380.09a115,115,0,0,1-1.81-22.72c0-9.59,1-19,5.13-27.88a29.16,29.16,0,0,1,13.14-14.22c2-1.06,3.54-1.59,3.13,1.79-2,16.1-3.36,32.28-6.49,48.24a8.78,8.78,0,0,1-2.15,4.69C408.14,373.43,404.43,376.68,400.71,380.09Z"/><path class="cls-1" d="M66.72,380.15a34.81,34.81,0,0,1-14.19-17.91c-2.39-6.39-2.78-13.13-3-19.81-.34-9.37-.32-18.73-4-28.65,7.65,2.65,12.65,6.87,16.14,13,3.68,6.43,5,13.52,5.75,20.79C68.51,358.26,67.84,368.9,66.72,380.15Z"/></g></g></svg>