<?xml version="1.0" encoding="utf-8"?>
<!-- Generator: Adobe Illustrator 24.1.3, SVG Export Plug-In . SVG Version: 6.00 Build 0)  -->
<svg version="1.1" id="Layer_1" xmlns="http://www.w3.org/2000/svg" xmlns:xlink="http://www.w3.org/1999/xlink" x="0px" y="0px"
	 viewBox="0 0 22.7 1.74" style="enable-background:new 0 0 22.7 1.74;" xml:space="preserve">
<style type="text/css">
	.st0{fill:none;stroke:#FFFFFF;stroke-width:4;stroke-miterlimit:10;}
</style>
<g>
	<path class="st0" d="M-210.91,22.55c-9.78,0-19.46,0-29.12,0c0,2.63,0,5.17,0,7.76c9.74,0,19.4,0,29.12,0
		C-210.91,27.7-210.91,25.16-210.91,22.55z M-52.11,29.54c5.91,0,11.75,0,17.57,0c0-2.22,0-4.35,0-6.49c-5.9,0-11.7,0-17.57,0
		C-52.11,25.21-52.11,27.31-52.11,29.54z"/>
	<path class="st0" d="M-98.05,53.18c-1.62-0.41-3.29-0.67-4.85-1.26c-2.02-0.77-3.93-1.81-5.89-2.7c-0.41-0.18-0.9-0.41-1.3-0.34
		c-4.44,0.75-8.84,1.74-13.3,2.26c-3.18,0.37-6.48,0.37-9.57-0.73c-4.02-1.42-4.71-3.89-4.02-7.58c0.48-2.55,2.08-4.51,3.75-6.44
		c3.37-3.89,7.37-7.02,11.52-9.98c1.06-0.75,1.32-1.49,1.39-2.69c0.34-5.69,2.18-10.79,6.02-15.14c3.6-4.07,8.1-6.58,13.34-7.64
		c3.98-0.81,8.04-0.71,12.1-0.36c4.51,0.39,8.53,1.97,12.29,4.39c0.28,0.18,0.72,0.27,1.03,0.19c5.16-1.33,10.32-2.63,15.69-2.61
		c2.61,0.01,5.25-0.02,7.83,0.34c2.27,0.32,4.37,1.48,5.04,3.85c0.7,2.47,0.3,4.94-1.19,7.17c-2.48,3.71-5.58,6.81-9.14,9.45
		c-2.98,2.21-6.03,4.32-9.01,6.52c-0.29,0.21-0.47,0.71-0.53,1.1c-0.91,6.34-3.62,11.78-8.43,16c-3.8,3.34-8.28,5.44-13.4,5.95
		c-0.17,0.02-0.32,0.15-0.48,0.24C-92.13,53.18-95.09,53.18-98.05,53.18z M-110.79,26.42c-0.09,4.08,1.05,7.56,3.27,10.72
		c1.29,1.84,1.43,1.97,3.59,1.21c3.96-1.41,7.98-2.67,11.8-4.39c5.08-2.28,9.99-4.94,14.99-7.4c0.92-0.45,1.09-1.14,0.94-2.02
		c-0.14-0.81-0.25-1.63-0.48-2.42c-1.69-5.83-5.28-9.81-11.25-11.46c-2.99-0.83-6-0.84-9.05-0.47c-3.71,0.45-6.9,2.02-9.4,4.7
		C-109.42,18.15-110.91,22.12-110.79,26.42z M-72.85,8.28c0.46,0.62,0.84,1.08,1.16,1.56c0.45,0.68,1.01,0.94,1.86,0.89
		c1.44-0.09,2.91-0.16,4.34,0.01c2.47,0.28,4.63,1.36,4.12,4.44c-0.16,0.97-0.58,2-1.17,2.79c-2.13,2.84-4.82,5.11-7.72,7.14
		c-5.2,3.63-10.69,6.76-16.48,9.32c-3.51,1.56-7.09,2.97-10.67,4.36c-4.95,1.92-10.06,3.36-15.33,3.98
		c-2.4,0.28-4.92,0.49-7.32-0.37c-1.63-0.58-2.44-1.68-2.45-3.34c-0.01-1.5,0.7-2.7,1.56-3.85c0.44-0.59,1.2-1.17,1.24-1.8
		c0.07-0.99-0.34-2.01-0.59-3.23c-1.79,1.46-3.41,2.83-5.09,4.13c-2.77,2.14-5.28,4.55-7.06,7.58c-1.72,2.94-1.81,4.43,2.16,5.26
		c1.97,0.41,4.09,0.44,6.11,0.27c3.14-0.27,6.3-0.66,9.38-1.33c7.88-1.72,15.48-4.33,22.94-7.43c9.17-3.81,17.93-8.38,26.2-13.85
		c4.56-3.02,8.99-6.27,12.47-10.56c1.13-1.39,1.94-3.05,2.76-4.66c0.47-0.92,0.07-1.74-0.83-2.33c-1.75-1.15-3.76-1.33-5.71-1.31
		c-2.56,0.04-5.13,0.32-7.66,0.7C-67.37,7.06-70.06,7.71-72.85,8.28z M-93.25,43.48c4.97,0.75,11.66-2.78,13.13-5.78
		C-84.49,39.62-88.88,41.55-93.25,43.48z M-67.56,17.9c0.84-1.05,1.57-1.96,2.3-2.87c-0.04-0.14-0.08-0.28-0.12-0.43
		c-1.16-0.15-2.32-0.29-3.59-0.46C-68.48,15.48-68.07,16.56-67.56,17.9z"/>
	<path class="st0" d="M0.11,53.18c-1.68-0.27-3.4-0.39-5.03-0.84c-10.03-2.79-16.18-9.42-18.45-19.48
		c-1.64-7.28-0.92-14.39,3.03-20.89c3.91-6.44,9.82-9.98,17.17-11.12c2.39-0.37,4.85-0.41,7.28-0.42C12.23,0.37,20.35,0.4,28.47,0.4
		c0.43,0,0.86,0,1.38,0c0,3.2,0,6.3,0,9.56c-0.47,0-0.93,0-1.4,0c-9.04,0-18.08,0-27.12,0c-8.43,0-15.04,6.1-15.87,14.51
		c-0.46,4.68,0.43,9,3.21,12.8c2.81,3.85,6.67,6.17,11.46,6.28c7.68,0.18,15.36,0.05,23.04,0.04c0.11,0,0.23-0.04,0.41-0.08
		c0-4.34,0-8.67,0-13.14c-3.9,0-7.76,0-11.63,0c-3.88,0-7.75,0-11.73,0c0-2.63,0-5.2,0-7.87c0.26-0.03,0.56-0.1,0.86-0.1
		c10.48-0.01,20.96,0,31.44,0c0.24,0,0.48,0.04,0.72,0.05c0,10.24,0,20.48,0,30.72C22.19,53.18,11.15,53.18,0.11,53.18z"/>
	<path class="st0" d="M-195.73,53.18c-0.08-0.42-0.23-0.84-0.23-1.26c-0.01-16.75,0-33.5-0.03-50.25c0-1.06,0.38-1.25,1.32-1.25
		c8.23,0.03,16.47,0.03,24.7,0.03c4.28,0,8.56-0.19,12.82-0.02c4.02,0.17,7.93,1,11.25,3.54c3.63,2.77,5.72,6.38,6.36,10.96
		c0.54,3.83,0.58,7.57-0.49,11.31c-1.46,5.15-4.72,8.66-9.69,10.82c0.24,0.28,0.45,0.55,0.69,0.8c4.7,4.79,9.41,9.57,14.11,14.36
		c0.26,0.27,0.42,0.64,0.62,0.96c-4.32,0-8.64,0-12.96,0c-4.19-4.63-8.37-9.28-12.6-13.88c-0.39-0.42-1.14-0.73-1.72-0.73
		c-5.72-0.05-11.43-0.03-17.15-0.03c-0.43,0-0.86,0-1.32,0c0-2.81,0-5.5,0-8.33c0.55,0,1.02,0,1.49,0
		c7.31-0.02,14.63,0.04,21.94-0.09c3.33-0.06,6.18-1.87,7.47-5.26c0.95-2.5,0.91-5.09,0.62-7.64c-0.25-2.15-1.2-4.08-3.04-5.44
		c-1.98-1.46-4.22-1.88-6.61-1.87c-9.11,0.01-18.23,0.01-27.34,0.02c-0.34,0-0.69,0.05-1.11,0.08c0,0.56,0,1.03,0,1.5
		c0,13.39,0,26.78-0.01,40.17c0,0.5-0.15,1-0.23,1.5C-189.81,53.18-192.77,53.18-195.73,53.18z"/>
	<path class="st0" d="M-321.25,53.18c-0.37-0.07-0.75-0.19-1.12-0.2c-2.72-0.02-5.44-0.01-8.16-0.01c-0.38,0-0.76-0.03-1.14-0.05
		c-0.07-0.1-0.14-0.21-0.21-0.31C-317.84,38.3-303.81,24-289.58,9.49c-0.61,0-1.03,0-1.44,0c-10.76,0-21.52-0.06-32.27,0.03
		c-4.52,0.04-7.37-2.84-8.26-6.89c-0.14-0.64-0.21-1.31-0.32-2.07c21.6,0,43.03,0,64.78,0c-14.49,14.58-28.73,28.92-43.21,43.49
		c14.49,0,28.69,0,43.06,0c0,3.15,0,6.14,0,9.12C-285.25,53.18-303.25,53.18-321.25,53.18z"/>
	<path class="st0" d="M-186.85,53.18c0.08-0.5,0.22-1,0.23-1.5c0.01-13.39,0.01-26.78,0.01-40.17c0-0.47,0-0.95,0-1.5
		c0.42-0.03,0.77-0.08,1.11-0.08c9.11-0.01,18.23-0.01,27.34-0.02c2.38,0,4.63,0.42,6.61,1.87c1.84,1.36,2.8,3.29,3.04,5.44
		c0.29,2.55,0.33,5.13-0.62,7.64c-1.29,3.39-4.14,5.21-7.47,5.26c-7.31,0.13-14.63,0.07-21.94,0.09c-0.47,0-0.94,0-1.49,0
		c0,2.83,0,5.52,0,8.33c0.46,0,0.89,0,1.32,0c5.72,0,11.43-0.02,17.15,0.03c0.59,0.01,1.33,0.31,1.72,0.73
		c4.23,4.6,8.41,9.24,12.6,13.88"/>
	<path class="st0" d="M-255.97,53.18c0.01-16.23,0.02-32.46,0.03-48.69c0-1.31,0-2.62,0-4.01c15.74,0,31.3,0,46.96,0
		c0,3.1,0,6.2,0,9.45c-12.47,0-24.95,0-37.52,0c0,11.28,0,22.41,0,33.64c12.51,0,24.97,0,37.56,0c0.08,3.27,0.17,6.44,0.25,9.61
		C-224.45,53.18-240.21,53.18-255.97,53.18z"/>
	<path class="st0" d="M-210.91,22.55c0,2.61,0,5.15,0,7.76c-9.72,0-19.37,0-29.12,0c0-2.59,0-5.12,0-7.76
		C-230.38,22.55-220.69,22.55-210.91,22.55z"/>
	<path class="st0" d="M-52.11,29.54c0-2.22,0-4.32,0-6.49c5.86,0,11.67,0,17.57,0c0,2.14,0,4.27,0,6.49
		C-40.37,29.54-46.21,29.54-52.11,29.54z"/>
	<path class="st0" d="M-110.79,26.42c-0.12-4.3,1.38-8.27,4.41-11.53c2.49-2.68,5.69-4.25,9.4-4.7c3.05-0.37,6.06-0.35,9.05,0.47
		c5.97,1.65,9.56,5.63,11.25,11.46c0.23,0.79,0.34,1.61,0.48,2.42c0.15,0.88-0.02,1.56-0.94,2.02c-5,2.46-9.91,5.12-14.99,7.4
		c-3.82,1.71-7.85,2.98-11.8,4.39c-2.15,0.77-2.29,0.64-3.59-1.21C-109.74,33.98-110.88,30.5-110.79,26.42z"/>
	<path class="st0" d="M-72.85,8.28c2.79-0.57,5.49-1.22,8.21-1.63c2.53-0.38,5.1-0.66,7.66-0.7c1.95-0.03,3.96,0.16,5.71,1.31
		c0.9,0.59,1.3,1.4,0.83,2.33c-0.82,1.61-1.63,3.27-2.76,4.66c-3.48,4.29-7.91,7.54-12.47,10.56c-8.27,5.47-17.03,10.04-26.2,13.85
		c-7.46,3.1-15.06,5.71-22.94,7.43c-3.08,0.67-6.24,1.07-9.38,1.33c-2.02,0.17-4.14,0.15-6.11-0.27c-3.97-0.84-3.88-2.33-2.16-5.26
		c1.78-3.03,4.29-5.44,7.06-7.58c1.68-1.3,3.3-2.67,5.09-4.13c0.25,1.22,0.66,2.24,0.59,3.23c-0.04,0.62-0.8,1.2-1.24,1.8
		c-0.86,1.15-1.57,2.35-1.56,3.85c0.01,1.67,0.82,2.76,2.45,3.34c2.4,0.86,4.93,0.65,7.32,0.37c5.27-0.62,10.38-2.06,15.33-3.98
		c3.58-1.39,7.16-2.8,10.67-4.36c5.79-2.57,11.28-5.7,16.48-9.32c2.91-2.03,5.59-4.3,7.72-7.14c0.59-0.79,1.01-1.81,1.17-2.79
		c0.51-3.07-1.65-4.16-4.12-4.44c-1.43-0.16-2.9-0.1-4.34-0.01c-0.85,0.05-1.41-0.2-1.86-0.89C-72.01,9.35-72.39,8.9-72.85,8.28z"/>
	<path class="st0" d="M-93.25,43.48c4.37-1.92,8.75-3.86,13.13-5.78C-81.59,40.7-88.28,44.23-93.25,43.48z"/>
	<path class="st0" d="M-67.56,17.9c-0.51-1.34-0.91-2.42-1.42-3.75c1.27,0.16,2.43,0.31,3.59,0.46c0.04,0.14,0.08,0.28,0.12,0.43
		C-66,15.94-66.73,16.86-67.56,17.9z"/>
</g>
</svg>
