<svg xmlns="http://www.w3.org/2000/svg" viewBox="0 0 597.48 360.33"><defs><style>.cls-1{fill:#fff;}</style></defs><g id="Layer_2" data-name="Layer 2"><g id="Layer_1-2" data-name="Layer 1"><path class="cls-1" d="M0,271.92c19.76-50.08,61-81,101.13-112.79,4.38-3.48,6.86-6.75,7.74-12.62,10.8-72.37,74.94-135,148-144.92,1.35-.18,2.8-.07,3.54-1.59h53.4c24.61,1.34,47.06,9.4,68.1,21.84,3.92,2.31,8,1.74,12.12.72,40.11-9.9,80.78-14.8,122.12-13.18a165.25,165.25,0,0,1,39.39,6c15.14,4.34,26.29,13.85,36.43,25.2,4.23,4.72,4,10.68,5.56,16.15V90.08c-19.1,51.32-60.84,82.68-101.59,114.81-9.57,7.55-20.93,13-29.89,21.11-9.22,8.38-8.62,22.22-14.48,32.84-29.77,54-72.17,90.76-135,100a9.25,9.25,0,0,0-2.72,1.46H258.69a146.57,146.57,0,0,1-55.59-15.79c-4.54-2.33-9.27-1.08-13.89-.09a432.52,432.52,0,0,1-107.68,9.86,168.46,168.46,0,0,1-38.65-5.76C27.7,344.37,16.32,335.14,6.1,323.77c-4-4.43-4.5-9.93-6.1-15.15Z"/><path d="M279.52,341.51c-19.6-.19-45.1-6.13-68.68-19.05-6.1-3.34-11.38-3.82-18-2.22-32.75,8-65.88,13.33-99.72,12.9-16.47-.22-32.74-1.9-48.21-8.05-26.14-10.39-34.66-30-24.21-56.18,6.15-15.39,15.75-28.65,26.88-40.77,20.76-22.62,44.12-42.31,69.31-59.79,5.18-3.6,7.72-7.52,8.5-14C133.85,84.18,195.34,24.08,265.65,16c40.59-4.68,77.82,3.71,111.93,26,3.44,2.25,6.25,2.24,10,1.27,38.29-9.87,77-17.35,116.73-17,15.64.15,31.12,1.76,45.92,7,28.35,10.13,37.15,29.86,26,57.86-6.71,16.78-17.72,30.73-29.87,43.81-26.67,28.71-57.81,52-90.69,73-6,3.81-9.55,8.1-11.52,15.07C424.14,293.46,360,341.64,279.52,341.51Z"/><path class="cls-1" d="M123.21,188.44c1.68,10.93,2.2,20.69,5,30.05,1.09,3.68-.43,6.2-2.72,9-4.94,6-9.76,12.07-12.27,19.64-3.89,11.76-.47,20.08,10.85,25.06,14.84,6.52,30.49,5.45,45.94,3.89,47.7-4.82,92.76-19.6,136.77-37.74,51-21,99.8-46.12,143.13-80.8a179.17,179.17,0,0,0,27.91-27.42,66.34,66.34,0,0,0,7.73-11.79c8-15.91,3.25-26.67-13.69-32-14.15-4.45-28.58-3.41-42.92-1.65-5.78.71-9.78-.09-13.38-5.23-4.39-6.27-9.9-11.76-15.57-18.33A528.23,528.23,0,0,1,478,46.6C497.28,44.47,516.27,45,535.06,50a76.89,76.89,0,0,1,17.72,7.13c8.92,5,11.86,12.31,8.72,22.13-6.18,19.26-18.15,35-31.82,49.29-23.52,24.71-50.92,44.76-79.54,63-87.12,55.61-180.71,96.05-282,117.76-29,6.22-58.38,11.66-88.43,7.71-11.63-1.53-23-4.06-33.39-9.68S33,294.09,36.68,283.09c4-12,10.79-22.39,18.29-32.44C73.51,225.82,97.64,207.23,123.21,188.44Z"/><path class="cls-1" d="M181.93,187.73c.06-61.89,43.91-108.91,99.23-112.46a107,107,0,0,1,113.3,91.33c.73,5-.4,7.48-4.63,9.94a713.69,713.69,0,0,1-174.46,73.27c-5.53,1.49-9,.64-12.53-4.28C189.16,226.36,182.19,205.16,181.93,187.73Z"/><path class="cls-1" d="M431.28,102.32c11.82-3.22,23-1.48,34,1.62,3.47,1,4.91,2.63,2.78,6.53A85.52,85.52,0,0,1,448.43,135c-2.15,1.83-3.59,2.49-4.54-1.11C441,122.91,436,112.7,431.28,102.32Z"/><path class="cls-1" d="M136.11,243.77a65.28,65.28,0,0,1,3,6.2c.75,2.16,3.87,4.54,1.93,6.38-2.43,2.31-5.87.29-8.28-1.27-3.08-2-.15-4.23.61-6.25A44.48,44.48,0,0,1,136.11,243.77Z"/><path class="cls-1" d="M339.19,275.48c-6.26,4.14-12.86,7.31-20.54,7.59-1.31.15-8.87,2.21-8.67,1.95s8.39-3.78,8.58-3.78c10-4.26,12.4-5,18.61-7.5C342.51,271.46,341.29,273.25,339.19,275.48Z"/><path d="M100.05,229.39c-12.53,34.41-4,62.49,44.6,65.1-9.13,3.82-17.43,3.64-25.39,5-20.32,3.39-40.15,2-59.49-5.72-5.63-2.24-7.09-4.58-4.21-10.28A157.85,157.85,0,0,1,100.05,229.39Z"/><path d="M466.07,66.12c22.81-5.05,44.37-5.59,65.68,1.69,14.11,4.82,14.3,5,7.34,17.7a148,148,0,0,1-38,45.68C511.69,97.25,507.25,74.76,466.07,66.12Z"/><path d="M287.65,88.42c42.24.14,78.51,26.45,90.59,64.28,1.79,5.6,1,8.7-4.53,11.81a749.17,749.17,0,0,1-154.3,65.36c-6.08,1.79-8.77-.09-11.73-5.07-32-53.73,1.13-124.32,63.33-134.7C277,89.09,283.05,88,287.65,88.42Z"/></g></g></svg>